<?xml version="1.0" standalone="no"?>
<!DOCTYPE svg PUBLIC "-//W3C//DTD SVG 20010904//EN"
 "http://www.w3.org/TR/2001/REC-SVG-20010904/DTD/svg10.dtd">
<svg version="1.0" xmlns="http://www.w3.org/2000/svg"
 width="500.000000pt" height="500.000000pt" viewBox="0 0 500.000000 500.000000"
 preserveAspectRatio="xMidYMid meet">

<g transform="translate(0.000000,500.000000) scale(0.100000,-0.100000)"
fill="#000000" stroke="none">
<path d="M0 2500 l0 -2500 2500 0 2500 0 0 2500 0 2500 -2500 0 -2500 0 0
-2500z m1742 988 l103 -172 6 163 c4 89 9 164 11 167 3 2 234 -2 514 -11 280
-8 537 -15 572 -15 l62 0 -6 -112 c-6 -97 -5 -111 7 -102 8 6 68 54 134 106
l120 95 513 -32 c282 -18 515 -35 518 -37 2 -3 -207 -189 -466 -414 -264 -230
-468 -414 -465 -421 2 -7 49 -66 104 -130 55 -65 235 -280 399 -478 294 -355
298 -360 270 -366 -16 -4 -201 -10 -411 -14 -210 -4 -389 -11 -397 -15 -12 -6
-56 40 -184 191 -93 109 -172 196 -175 193 -3 -3 -8 -90 -11 -194 -3 -104 -8
-192 -12 -195 -7 -7 -851 10 -1044 21 l-101 6 -84 149 -84 149 -5 -157 -5
-158 -430 -3 c-285 -2 -468 1 -542 8 -62 7 -113 14 -113 15 0 12 261 1877 266
1903 l7 32 413 0 413 0 103 -172z"/>
<path d="M997 3407 c-19 -106 -209 -1478 -206 -1482 11 -10 443 -65 448 -57 3
6 30 181 59 389 29 208 55 384 58 392 2 7 114 -146 248 -340 283 -409 319
-455 361 -463 69 -11 315 -29 322 -22 4 3 39 346 78 760 l70 754 -50 6 c-170
19 -397 37 -402 32 -4 -4 -21 -160 -39 -347 -18 -187 -34 -342 -36 -343 -1 -2
-109 149 -238 336 -129 186 -239 343 -245 348 -5 4 -93 20 -195 34 -102 15
-195 29 -206 31 -18 4 -23 -1 -27 -28z"/>
<path d="M3117 3213 l-159 -158 7 95 c4 52 8 106 9 120 l1 25 -225 21 c-124
12 -226 20 -228 19 -5 -4 -145 -1515 -141 -1519 8 -8 444 -45 450 -38 3 4 16
117 28 252 12 135 24 266 28 291 l5 47 255 -284 c221 -248 253 -287 242 -301
-12 -14 -8 -15 36 -9 28 3 154 11 280 17 127 6 236 13 243 15 17 5 -34 68
-174 214 -55 58 -199 215 -319 350 -120 135 -232 260 -249 278 l-30 32 210
213 c115 116 258 267 316 333 l107 121 -147 7 c-81 4 -201 9 -267 11 l-120 5
-158 -157z"/>
<path d="M4045 1820 c-3 -5 1 -10 10 -10 9 0 13 5 10 10 -3 6 -8 10 -10 10 -2
0 -7 -4 -10 -10z"/>
</g>
</svg>
